# AST/ASF file generated using VICON BodyLanguage
# -----------------------------------------------
:version 1.10
:name VICON
:units
  mass 1.0
  length 0.45
  angle deg
:documentation
   .ast/.asf automatically generated from VICON data using
   VICON BodyBuilder and BodyLanguage model FoxedUp or BRILLIANT.MOD
:root
   order TX TY TZ RX RY RZ
   axis XYZ
   position 0 0 0  
   orientation 0 0 0 
:bonedata
  begin
     id 1 
     name lhipjoint
     direction 0.537252 -0.787203 0.302774 
     length 2.29576 
     axis 0 0 0  XYZ
  end
  begin
     id 2 
     name lfemur
     direction 0.34202 -0.939693 0  
     length 7.31114  
     axis 0 0 20  XYZ
    dof rx ry rz
    limits (-160.0 20.0)
           (-70.0 70.0)
           (-60.0 70.0)
  end
  begin
     id 3 
     name ltibia
     direction 0.34202 -0.939693 0   
     length 8.36008   
     axis 0 0 20   XYZ
    dof rx
    limits (-10.0 170.0)
  end
  begin
     id 4 
     name lfoot
     direction 0.0969116 -0.266263 0.959016   
     length 2.16704   
     axis -90 7.62852e-016 20   XYZ
    dof rx rz
    limits (-45.0 90.0)
           (-70.0 20.0)
  end
  begin
     id 5 
     name ltoes
     direction 1.53563e-011 -4.21779e-011 1   
     length 1.08338   
     axis -90 7.62852e-016 20   XYZ
    dof rx
    limits (-90.0 20.0)
  end
  begin
     id 6 
     name rhipjoint
     direction -0.588228 -0.754791 0.290308   
     length 2.39434  
     axis 0 0 0  XYZ 
  end
  begin
     id 7 
     name rfemur
     direction -0.34202 -0.939693 0   
     length 7.45207   
     axis 0 0 -20   XYZ
    dof rx ry rz
    limits (-160.0 20.0)
           (-70.0 70.0)
           (-70.0 60.0)
  end
  begin
     id 8 
     name rtibia
     direction -0.34202 -0.939693 0   
     length 8.03565   
     axis 0 0 -20   XYZ
    dof rx
    limits (-10.0 170.0)
 end
 begin
     id 9 
     name rfoot
     direction -0.107009 -0.294004 0.949795   
     length 2.11509  
     axis -90 -7.62852e-016 -20   XYZ
    dof rx rz
    limits (-45.0 90.0)
           (-20.0 70.0)
  end
  begin
     id 10 
     name rtoes
     direction -1.53533e-011 -4.22004e-011 1   
     length 1.05493   
     axis -90 -7.62852e-016 -20   XYZ
    dof rx
    limits (-90.0 20.0)
  end
  begin
     id 11 
     name lowerback
     direction -0.0115208 0.997969 -0.0626515   
     length 2.03153   
     axis 0 0 0   XYZ
    dof rx ry rz
    limits (-20.0 45.0)
           (-30.0 30.0)
           (-30.0 30.0)
  end
  begin
     id 12 
     name upperback
     direction -0.00423475 0.999974 -0.00583614   
     length 2.03619   
     axis 0 0 0   XYZ
    dof rx ry rz
    limits (-20.0 45.0)
           (-30.0 30.0)
           (-30.0 30.0)
  end
  begin
     id 13 
     name thorax
     direction 0.00289429 0.999728 0.0231573   
     length 2.03921   
     axis 0 0 0   XYZ
    dof rx ry rz
    limits (-20.0 45.0)
           (-30.0 30.0)
           (-30.0 30.0)
  end
  begin
     id 14 
     name lowerneck
     direction 0.0188995 0.987777 0.154721   
     length 1.78836   
     axis 0 0 0   XYZ
    dof rx ry rz
    limits (-20.0 45.0)
           (-30.0 30.0)
           (-30.0 30.0)
  end
  begin
     id 15 
     name upperneck
     direction -0.00612612 0.992995 -0.118   
     length 1.81789   
     axis 0 0 0   XYZ
    dof rx ry rz
    limits (-20.0 45.0)
           (-30.0 30.0)
           (-30.0 30.0)
  end
  begin
     id 16
     name head
     direction -0.00420226 0.998397 -0.0564482  
     length 1.82234  
     axis 0 0 0   XYZ
    dof rx ry rz
    limits (-20.0 45.0)
           (-30.0 30.0)
           (-30.0 30.0)
  end
  begin
     id 17 
     name lclavicle
     direction 0.916488 0.396539 0.0529676  
     length 3.51732  
     axis 0 0 0   XYZ
    dof ry rz
    limits (-20.0 10.0)
           (0.0 20.0)
  end
  begin
     id 18 
     name lhumerus
     direction 1 -4.4896e-011 8.36962e-028   
     length 5.45077   
     axis 180 -30 -90   XYZ
    dof rx ry rz
    limits (-60.0 90.0)
           (-90.0 90.0)
           (-90.0 90.0)
  end
  begin
     id 19
     name lradius
     direction 1 -4.48962e-011 3.01407e-027   
     length 3.05488   
     axis 180 -30 -90   XYZ
    dof rx
    limits (-10.0 170.0)
  end
  begin
     id 20
     name lwrist
     direction 1 -4.49002e-011 4.72961e-027   
     length 1.52744   
     axis -2.72261e-015 90 90   XYZ
    dof ry
    limits (-180.0 0.0)
 end
  begin
     id 21 
     name lhand
     direction 1 -4.4899e-011 9.45681e-027   
     length 0.638818   
     axis -6.0311e-015 90 90   XYZ
    dof rx rz
    limits (-90.0 90.0)
           (-45.0 45.0)
  end
  begin
     id 22 
     name lfingers
     direction 1 -4.48871e-011 1.88632e-026   
     length 0.515032   
     axis -1.20625e-014 90 90   XYZ
    dof rx
    limits (0.0 90.0)
  end
  begin
     id 23
     name lthumb
     direction 0.707107 -6.34964e-011 0.707107   
     length 0.739485   
     axis -90 45 6.32835e-014   XYZ
    dof rx rz
    limits (-45.0 45.0)
           (-45.0 45.0)
  end
  begin
     id 24 
     name rclavicle
     direction -0.949427 0.303202 0.0815894   
     length 3.76167  
     axis 0 0 0   XYZ 
    dof ry rz
    limits (-10.0 20.0)
           (-20.0 0.0)
  end
  begin
     id 25 
     name rhumerus
     direction -1 -4.48971e-011 -6.43969e-018  
     length 4.88702   
     axis 180 30 90   XYZ
    dof rx ry rz
    limits (-90.0 60.0)
           (-90.0 90.0)
           (-90.0 90.0)
  end
  begin
     id 26 
     name rradius
     direction -1 -4.48987e-011 5.46662e-027   
     length 3.22603   
     axis 180 30 90   XYZ
    dof rx
    limits (-10.0 170.0)
  end
  begin
     id 27 
     name rwrist
     direction -1 -4.48956e-011 4.72476e-027   
     length 1.61302   
     axis -2.72261e-015 -90 -90   XYZ
    dof ry
    limits (-180.0 0.0)
  end
  begin
     id 28
     name rhand
     direction -1 -4.4889e-011 9.43571e-027   
     length 0.716293   
     axis -6.0311e-015 -90 -90   XYZ
    dof rx rz
    limits (-90.0 90.0)
           (-45.0 45.0)
  end
  begin
     id 29
     name rfingers
     direction -1 -4.48887e-011 1.88701e-026   
     length 0.577494   
     axis -1.20625e-014 -90 -90   XYZ
    dof rx
    limits (0.0 90.0)
  end
  begin
     id 30
     name rthumb
     direction -0.707107 -6.34825e-011 0.707107   
     length 0.829169   
     axis -90 -45 -6.32835e-014   XYZ
    dof rx rz
    limits (-45.0 45.0)
           (-45.0 45.0)
  end
:hierarchy
  begin
    root lhipjoint rhipjoint lowerback
    lhipjoint lfemur
    lfemur ltibia
    ltibia lfoot
    lfoot ltoes
    rhipjoint rfemur
    rfemur rtibia
    rtibia rfoot
    rfoot rtoes
    lowerback upperback
    upperback thorax
    thorax lowerneck lclavicle rclavicle
    lowerneck upperneck
    upperneck head
    lclavicle lhumerus
    lhumerus lradius
    lradius lwrist
    lwrist lhand lthumb
    lhand lfingers
    rclavicle rhumerus
    rhumerus rradius
    rradius rwrist
    rwrist rhand rthumb
    rhand rfingers
  end

#!OML:ASF F:\VICON\USERDATA\INSTALL\rory3\rory3.ASF
:FULLY-SPECIFIED
:DEGREES
224
root -0.902796 16.6998 0.530734 157.161 88.572 82.2642
lowerback 37.5126 -0.65324 -2.66783
upperback 16.7645 0.18134 -0.225992
thorax -0.0811416 0.420285 1.09378
lowerneck -19.8311 -0.00914012 3.10875
upperneck -4.62279 -0.337096 -2.97362
head 1.89394 -0.172843 -1.54742
rclavicle 1.25651e-013 3.3517e-014
rhumerus 99.6208 -2.78902 -110.999
rradius 29.9478
rwrist -173.648
rhand -33.0368 -10.6141
rfingers 7.12502
rthumb -6.24972 -40.5019
lclavicle 1.25651e-013 3.3517e-014
lhumerus 92.0128 10.4813 102.602
lradius 31.3152
lwrist 201.977
lhand -37.5831 -33.6501
lfingers 7.12502
lthumb -10.6371 -3.93937
rfemur -105.219 -6.58885 29.0456
rtibia 35.3212
rfoot -2.43664 12.3622
rtoes 2.91151
lfemur -110.25 6.02473 -61.1884
ltibia 38.294
lfoot 7.1203 -28.2051
ltoes 14.6476
225
root -0.90299 16.698 0.530762 158.615 88.6604 83.6753
lowerback 37.608 -0.601242 -2.66217
upperback 16.7649 0.242889 -0.190422
thorax -0.112859 0.446489 1.1076
lowerneck -19.7175 -0.0255374 3.1085
upperneck -4.63896 -0.359969 -2.95087
head 1.86766 -0.184258 -1.54018
rclavicle -3.8541e-014 -9.71794e-015
rhumerus 99.6799 -2.59067 -111.417
rradius 29.8248
rwrist -173.305
rhand -32.5908 -10.7578
rfingers 7.12502
rthumb -5.81917 -40.6579
lclavicle -3.8541e-014 -9.71794e-015
lhumerus 92.1877 10.1714 103.366
lradius 31.2441
lwrist 201.143
lhand -37.8023 -33.9125
lfingers 7.12502
lthumb -10.8486 -4.21274
rfemur -105.258 -6.51639 29.1099
rtibia 35.3707
rfoot -2.53723 12.4634
rtoes 2.26806
lfemur -110.373 6.04998 -61.0582
ltibia 38.3595
lfoot 7.05148 -28.1783
ltoes 14.539
226
root -0.902238 16.6951 0.530355 161.165 88.7337 86.1529
lowerback 37.6462 -0.587926 -2.60148
upperback 16.7805 0.277093 -0.187089
thorax -0.109712 0.464629 1.06843
lowerneck -19.5778 -0.0689387 3.09246
upperneck -4.71671 -0.415276 -2.91846
head 1.81441 -0.210743 -1.52836
rclavicle 1.16817e-014 -3.91264e-014
rhumerus 99.7207 -2.48393 -111.639
rradius 29.8038
rwrist -173.169
rhand -32.3986 -10.6633
rfingers 7.12502
rthumb -5.63361 -40.5684
lclavicle 1.16817e-014 -3.91264e-014
lhumerus 92.3065 9.98409 103.694
lradius 31.1601
lwrist 200.816
lhand -37.7988 -34.1081
lfingers 7.12502
lthumb -10.8452 -4.40809
rfemur -105.351 -6.46667 29.2989
rtibia 35.408
rfoot -2.46963 12.6183
rtoes 2.43631
lfemur -110.482 6.03678 -60.8699
ltibia 38.4043
lfoot 6.8519 -28.1317
ltoes 14.3068
227
root -0.901772 16.6912 0.532226 161.967 88.7707 86.9084
lowerback 37.7547 -0.554485 -2.61031
upperback 16.7721 0.310628 -0.190876
thorax -0.153605 0.480032 1.05721
lowerneck -19.4609 -0.0415002 3.26459
upperneck -4.76597 -0.413607 -3.01288
head 1.77845 -0.215496 -1.58899
rclavicle 1.42131e-014 1.06847e-014
rhumerus 99.7336 -2.42717 -111.776
rradius 29.7983
rwrist -173.09
rhand -32.1503 -10.5594
rfingers 7.12502
rthumb -5.39387 -40.4707
lclavicle 1.42131e-014 1.06847e-014
lhumerus 92.3349 9.86409 103.877
lradius 31.0926
lwrist 200.617
lhand -37.8814 -34.2735
lfingers 7.12502
lthumb -10.9249 -4.5777
rfemur -105.407 -6.43564 29.3819
rtibia 35.4166
rfoot -2.413 12.7237
rtoes 2.77855
lfemur -110.526 6.03148 -60.6331
ltibia 38.4387
lfoot 6.62735 -27.9938
ltoes 13.9638
228
root -0.901601 16.689 0.533643 164.296 88.8056 89.1874
lowerback 37.8589 -0.51009 -2.62275
upperback 16.7609 0.358002 -0.144055
thorax -0.20001 0.498376 1.09632
lowerneck -19.3574 -0.00149476 3.45198
upperneck -4.84289 -0.396587 -3.15791
head 1.73637 -0.21375 -1.66806
rclavicle 4.58944e-014 1.14053e-014
rhumerus 99.7652 -2.3786 -111.854
rradius 29.7153
rwrist -173.103
rhand -32.0824 -10.7411
rfingers 7.12502
rthumb -5.32825 -40.6541
lclavicle 4.58944e-014 1.14053e-014
lhumerus 92.3298 9.77603 104.163
lradius 31.0065
lwrist 200.496
lhand -38.1777 -33.8806
lfingers 7.12502
lthumb -11.2106 -4.20016
rfemur -105.433 -6.42354 29.4715
rtibia 35.4
rfoot -2.3425 12.8172
rtoes 3.04854
lfemur -110.575 6.00015 -60.3987
ltibia 38.4613
lfoot 6.45482 -27.855
ltoes 13.8165
229
root -0.901071 16.6864 0.533683 163.427 88.8194 88.2143
lowerback 37.8531 -0.478289 -2.68025
upperback 16.7744 0.3793 -0.120965
thorax -0.183401 0.502595 1.14374
lowerneck -19.2991 -0.0382622 3.32474
upperneck -4.97319 -0.419224 -3.03889
head 1.6793 -0.217659 -1.60493
rclavicle 8.12532e-015 2.47735e-014
rhumerus 99.802 -2.27235 -111.935
rradius 29.6197
rwrist -173.183
rhand -32.1615 -10.6971
rfingers 7.12502
rthumb -5.40465 -40.6082
lclavicle 8.12532e-015 2.47735e-014
lhumerus 92.3391 9.73258 104.243
lradius 30.916
lwrist 200.563
lhand -38.2065 -33.3393
lfingers 7.12502
lthumb -11.2385 -3.66033
rfemur -105.548 -6.40725 29.6932
rtibia 35.3651
rfoot -2.25686 13.0065
rtoes 2.74715
lfemur -110.672 5.92661 -60.3649
ltibia 38.4905
lfoot 6.40951 -27.7819
ltoes 13.8583
230
root -0.899912 16.6806 0.534441 163.264 88.9024 87.9212
lowerback 37.788 -0.460196 -2.71907
upperback 16.7881 0.386772 -0.139726
thorax -0.147631 0.502854 1.14273
lowerneck -19.2249 -0.0325287 3.25292
upperneck -5.09214 -0.395423 -2.94225
head 1.62551 -0.199538 -1.55605
rclavicle 7.83709e-014 3.1818e-014
rhumerus 99.7925 -2.15178 -112.032
rradius 29.6182
rwrist -173.081
rhand -32.1892 -10.5873
rfingers 7.12502
rthumb -5.43137 -40.4977
lclavicle 7.83709e-014 3.1818e-014
lhumerus 92.4217 9.69377 104.427
lradius 30.8724
lwrist 200.274
lhand -38.3763 -33.6796
lfingers 7.12502
lthumb -11.4022 -4.00958
rfemur -105.675 -6.30117 29.9926
rtibia 35.3077
rfoot -2.14742 13.1702
rtoes 2.85836
lfemur -110.852 5.90659 -60.3464
ltibia 38.5387
lfoot 6.44475 -27.7122
ltoes 14.2053
231
root -0.899353 16.6734 0.535478 163.258 88.9857 87.7875
lowerback 37.7254 -0.405116 -2.76014
upperback 16.786 0.434898 -0.132655
thorax -0.131544 0.520398 1.15675
lowerneck -19.0768 -0.0203035 3.37507
upperneck -5.24114 -0.401156 -3.04208
head 1.54997 -0.205829 -1.60852
rclavicle -1.46464e-013 -3.21845e-014
rhumerus 99.7891 -2.09883 -112.126
rradius 29.6381
rwrist -172.955
rhand -32.2494 -10.5221
rfingers 7.12502
rthumb -5.48958 -40.431
lclavicle -1.46464e-013 -3.21845e-014
lhumerus 92.3717 9.65741 104.45
lradius 30.8838
lwrist 200.128
lhand -38.5055 -33.7197
lfingers 7.12502
lthumb -11.5268 -4.05669
rfemur -105.81 -6.20142 30.3183
rtibia 35.241
rfoot -1.9275 13.41
rtoes 3.75482
lfemur -111.049 5.88339 -60.3282
ltibia 38.6032
lfoot 6.30994 -27.7064
ltoes 13.9853
232
root -0.89983 16.6689 0.536294 165.146 89.0458 89.5785
lowerback 37.6984 -0.372643 -2.75458
upperback 16.7748 0.470759 -0.117389
thorax -0.136886 0.534952 1.15855
lowerneck -19.0124 -0.0458371 3.30819
upperneck -5.32619 -0.421062 -2.97632
head 1.50844 -0.211743 -1.57447
rclavicle 4.31176e-014 2.83641e-014
rhumerus 99.7822 -2.08936 -112.146
rradius 29.6032
rwrist -173.041
rhand -32.2421 -10.5682
rfingers 7.12502
rthumb -5.48251 -40.4772
lclavicle 4.31176e-014 2.83641e-014
lhumerus 92.2437 9.66013 104.206
lradius 30.8973
lwrist 200.438
lhand -38.0535 -33.141
lfingers 7.12502
lthumb -11.0908 -3.45401
rfemur -105.899 -6.13637 30.5556
rtibia 35.1803
rfoot -1.76085 13.5647
rtoes 4.43165
lfemur -111.206 5.8492 -60.2615
ltibia 38.675
lfoot 6.14098 -27.6971
ltoes 13.5551
233
root -0.900683 16.6668 0.538319 161.174 89.0454 85.5336
lowerback 37.6835 -0.327884 -2.86841
upperback 16.767 0.486655 -0.106771
thorax -0.139932 0.534673 1.22383
lowerneck -18.9309 -0.0698657 3.13209
upperneck -5.39358 -0.41657 -2.82983
head 1.47007 -0.201132 -1.49251
rclavicle -2.44847e-014 -8.3179e-015
rhumerus 99.7398 -2.06964 -112.054
rradius 29.5487
rwrist -173.206
rhand -32.0294 -10.6918
rfingers 7.12502
rthumb -5.27714 -40.6061
lclavicle -2.44847e-014 -8.3179e-015
lhumerus 92.177 9.65859 104.199
lradius 30.9097
lwrist 200.558
lhand -37.8669 -33.0331
lfingers 7.12502
lthumb -10.9109 -3.33662
rfemur -105.963 -6.10512 30.5305
rtibia 35.1464
rfoot -1.7025 13.6192
rtoes 4.40401
lfemur -111.324 5.81619 -60.4302
ltibia 38.7243
lfoot 6.14251 -27.8106
ltoes 13.3866
234
root -0.902327 16.6641 0.540227 162.802 89.1016 87.1119
lowerback 37.6819 -0.322333 -2.88408
upperback 16.75 0.483854 -0.119804
thorax -0.157634 0.53249 1.21905
lowerneck -18.6846 -0.0133534 3.28651
upperneck -5.6129 -0.366296 -2.95443
head 1.35642 -0.178971 -1.55331
rclavicle -4.63945e-014 -8.76827e-015
rhumerus 99.6325 -1.96931 -112.13
rradius 29.5272
rwrist -173.302
rhand -31.8764 -10.876
rfingers 7.12502
rthumb -5.12941 -40.7939
lclavicle -4.63945e-014 -8.76827e-015
lhumerus 92.0479 9.71884 104.088
lradius 30.9533
lwrist 200.819
lhand -37.8693 -33.1146
lfingers 7.12502
lthumb -10.9132 -3.41826
rfemur -106.004 -6.03454 30.6014
rtibia 35.1338
rfoot -1.65942 13.7182
rtoes 4.4043
lfemur -111.432 5.82906 -60.3779
ltibia 38.7526
lfoot 6.17687 -27.8103
ltoes 13.4056
235
root -0.903995 16.6621 0.541779 170.592 89.1292 94.8644
lowerback 37.6767 -0.36239 -2.79431
upperback 16.7336 0.46179 -0.122064
thorax -0.1746 0.526824 1.17695
lowerneck -18.5821 -0.0024684 3.31721
upperneck -5.73533 -0.354837 -3.00568
head 1.29831 -0.173235 -1.57278
rclavicle 1.7662e-013 -7.93275e-015
rhumerus 99.5286 -1.90102 -112.185
rradius 29.514
rwrist -173.466
rhand -31.7842 -11.0907
rfingers 7.12502
rthumb -5.04037 -41.0108
lclavicle 1.7662e-013 -7.93275e-015
lhumerus 91.935 9.78231 103.964
lradius 30.8825
lwrist 201.346
lhand -37.7521 -32.6906
lfingers 7.12502
lthumb -10.8002 -2.98826
rfemur -106.046 -6.00933 30.7304
rtibia 35.1351
rfoot -1.62797 13.7457
rtoes 4.46155
lfemur -111.491 5.81583 -60.2158
ltibia 38.7667
lfoot 6.29297 -27.7459
ltoes 13.6838
